<svg width="540" height="90" viewBox="0 0 540 90" fill="none" xmlns="http://www.w3.org/2000/svg">
<path d="M43.4397 89.8016H7.86507C3.51962 89.8016 0 86.2815 0 81.9354V24.5816C9.6003 14.98 14.978 9.60158 24.5783 0H60.153C64.4985 0 68.0181 3.52009 68.0181 7.86612V65.2199C58.4178 74.8215 53.04 80.2 43.4397 89.8016Z" fill="#A8D331"/>
<path d="M514.513 67.129H505.325C504.574 67.129 504.021 66.971 503.666 66.6548C503.349 66.2992 503.191 65.7459 503.191 64.9951V26.5849C503.191 25.8341 503.349 25.3007 503.666 24.9845C504.021 24.6289 504.574 24.451 505.325 24.451H514.513C515.264 24.451 515.797 24.6289 516.113 24.9845C516.469 25.3007 516.647 25.8341 516.647 26.5849V39.4476H526.546V26.5849C526.546 25.8341 526.704 25.3007 527.02 24.9845C527.376 24.6289 527.929 24.451 528.68 24.451H537.867C538.618 24.451 539.152 24.6289 539.468 24.9845C539.823 25.3007 540.001 25.8341 540.001 26.5849V64.9951C540.001 65.7459 539.823 66.2992 539.468 66.6548C539.152 66.971 538.618 67.129 537.867 67.129H528.68C527.929 67.129 527.376 66.971 527.02 66.6548C526.704 66.2992 526.546 65.7459 526.546 64.9951V51.8361H516.647V64.9951C516.647 65.7459 516.469 66.2992 516.113 66.6548C515.797 66.971 515.264 67.129 514.513 67.129Z" fill="#F8F8F7"/>
<path d="M485.633 67.129H476.03C475.279 67.129 474.726 66.971 474.37 66.6548C474.054 66.2992 473.896 65.7459 473.896 64.9951V35.8911H465.183C464.432 35.8911 463.879 35.7331 463.523 35.4169C463.207 35.0613 463.049 34.508 463.049 33.7572V26.5849C463.049 25.8341 463.207 25.3007 463.523 24.9845C463.879 24.6289 464.432 24.451 465.183 24.451H496.48C497.231 24.451 497.764 24.6289 498.08 24.9845C498.436 25.3007 498.614 25.8341 498.614 26.5849V33.7572C498.614 34.508 498.436 35.0613 498.08 35.4169C497.764 35.7331 497.231 35.8911 496.48 35.8911H487.767V64.9951C487.767 65.7459 487.589 66.2992 487.233 66.6548C486.917 66.971 486.383 67.129 485.633 67.129Z" fill="#F8F8F7"/>
<path d="M458.775 55.9261C458.775 57.7438 458.498 59.4035 457.945 60.9052C457.431 62.3673 456.483 63.6318 455.099 64.6987C453.756 65.7262 451.899 66.5363 449.528 67.129C447.157 67.7218 444.134 68.0181 440.459 68.0181C436.783 68.0181 433.76 67.7218 431.389 67.129C429.018 66.5363 427.141 65.7262 425.758 64.6987C424.415 63.6318 423.466 62.3673 422.913 60.9052C422.399 59.4035 422.143 57.7438 422.143 55.9261V26.5849C422.143 25.8341 422.301 25.3007 422.617 24.9845C422.972 24.6289 423.526 24.451 424.276 24.451H433.583C434.333 24.451 434.867 24.6289 435.183 24.9845C435.539 25.3007 435.717 25.8341 435.717 26.5849V53.6143C435.717 54.4047 436.013 55.0764 436.606 55.6297C437.198 56.1434 438.522 56.4003 440.577 56.4003C442.671 56.4003 444.015 56.1434 444.608 55.6297C445.201 55.0764 445.497 54.4047 445.497 53.6143V26.5849C445.497 25.8341 445.655 25.3007 445.971 24.9845C446.327 24.6289 446.88 24.451 447.631 24.451H456.641C457.391 24.451 457.925 24.6289 458.241 24.9845C458.597 25.3007 458.775 25.8341 458.775 26.5849V55.9261Z" fill="#F8F8F7"/>
<path d="M392.968 35.1205V42.7077H397.414C398.441 42.7077 399.133 42.4509 399.489 41.9372C399.844 41.3839 400.022 40.7121 400.022 39.9218V37.9065C400.022 37.1161 399.844 36.4641 399.489 35.9504C399.133 35.3972 398.441 35.1205 397.414 35.1205H392.968ZM390.835 67.129H381.706C380.955 67.129 380.402 66.971 380.046 66.6548C379.73 66.2992 379.572 65.7459 379.572 64.9951V26.5849C379.572 25.8341 379.73 25.3007 380.046 24.9845C380.402 24.6289 380.955 24.451 381.706 24.451H401.445C405.871 24.451 408.913 25.3797 410.573 27.237C412.272 29.0547 413.122 31.4257 413.122 34.35V37.0766C413.122 38.7363 412.865 40.1589 412.351 41.3444C411.877 42.4904 411.028 43.3202 409.803 43.834C411.936 44.0711 413.655 44.9404 414.959 46.4421C416.303 47.9437 416.975 49.9393 416.975 52.4288V64.9951C416.975 65.7459 416.797 66.2992 416.441 66.6548C416.125 66.971 415.592 67.129 414.841 67.129H405.653C404.902 67.129 404.349 66.971 403.994 66.6548C403.677 66.2992 403.519 65.7459 403.519 64.9951V55.9261C403.519 55.0567 403.342 54.4244 402.986 54.0293C402.67 53.5946 402.097 53.3772 401.267 53.3772H392.968V64.9951C392.968 65.7459 392.791 66.2992 392.435 66.6548C392.119 66.971 391.585 67.129 390.835 67.129Z" fill="#F8F8F7"/>
<path d="M362.012 67.129H352.409C351.658 67.129 351.105 66.971 350.749 66.6548C350.433 66.2992 350.275 65.7459 350.275 64.9951V35.8911H341.562C340.811 35.8911 340.258 35.7331 339.902 35.4169C339.586 35.0613 339.428 34.508 339.428 33.7572V26.5849C339.428 25.8341 339.586 25.3007 339.902 24.9845C340.258 24.6289 340.811 24.451 341.562 24.451H372.859C373.61 24.451 374.143 24.6289 374.459 24.9845C374.815 25.3007 374.993 25.8341 374.993 26.5849V33.7572C374.993 34.508 374.815 35.0613 374.459 35.4169C374.143 35.7331 373.61 35.8911 372.859 35.8911H364.145V64.9951C364.145 65.7459 363.968 66.2992 363.612 66.6548C363.296 66.971 362.762 67.129 362.012 67.129Z" fill="#F8F8F7"/>
<path d="M321.219 67.129H301.243C300.492 67.129 299.939 66.971 299.584 66.6548C299.267 66.2992 299.109 65.7459 299.109 64.9951V26.5849C299.109 25.8341 299.267 25.3007 299.584 24.9845C299.939 24.6289 300.492 24.451 301.243 24.451H321.219C326.159 24.451 329.814 25.439 332.185 27.4148C334.595 29.3906 335.801 32.4334 335.801 36.5431V55.0369C335.801 59.1467 334.595 62.1894 332.185 64.1653C329.814 66.1411 326.159 67.129 321.219 67.129ZM312.565 35.7726V55.9261H319.619C320.567 55.9261 321.258 55.689 321.693 55.2148C322.167 54.7406 322.404 54.0095 322.404 53.0216V38.6178C322.404 37.6298 322.167 36.9185 321.693 36.4839C321.258 36.0097 320.567 35.7726 319.619 35.7726H312.565Z" fill="#F8F8F7"/>
<path d="M266.691 67.129H257.8C257.049 67.129 256.496 66.971 256.14 66.6548C255.824 66.2992 255.666 65.7459 255.666 64.9951V26.5849C255.666 25.8341 255.824 25.3007 256.14 24.9845C256.496 24.6289 257.049 24.451 257.8 24.451H263.965C264.715 24.451 265.348 24.5696 265.861 24.8067C266.415 25.0438 266.948 25.4587 267.462 26.0515L278.961 39.2105V26.5849C278.961 25.8341 279.119 25.3007 279.435 24.9845C279.791 24.6289 280.344 24.451 281.095 24.451H289.986C290.737 24.451 291.271 24.6289 291.587 24.9845C291.942 25.3007 292.12 25.8341 292.12 26.5849V64.9951C292.12 65.7459 291.942 66.2992 291.587 66.6548C291.271 66.971 290.737 67.129 289.986 67.129H281.095C280.344 67.129 279.791 66.971 279.435 66.6548C279.119 66.2992 278.961 65.7459 278.961 64.9951V57.7043L268.825 45.4344V64.9951C268.825 65.7459 268.647 66.2992 268.292 66.6548C267.975 66.971 267.442 67.129 266.691 67.129Z" fill="#F8F8F7"/>
<path d="M248.962 55.9261C248.962 57.7438 248.685 59.4035 248.132 60.9052C247.618 62.3673 246.67 63.6318 245.287 64.6987C243.943 65.7262 242.086 66.5363 239.715 67.129C237.344 67.7218 234.321 68.0181 230.646 68.0181C226.971 68.0181 223.948 67.7218 221.577 67.129C219.206 66.5363 217.329 65.7262 215.946 64.6987C214.602 63.6318 213.654 62.3673 213.101 60.9052C212.587 59.4035 212.33 57.7438 212.33 55.9261V26.5849C212.33 25.8341 212.488 25.3007 212.804 24.9845C213.16 24.6289 213.713 24.451 214.464 24.451H223.77C224.521 24.451 225.054 24.6289 225.371 24.9845C225.726 25.3007 225.904 25.8341 225.904 26.5849V53.6143C225.904 54.4047 226.2 55.0764 226.793 55.6297C227.386 56.1434 228.71 56.4003 230.765 56.4003C232.859 56.4003 234.203 56.1434 234.795 55.6297C235.388 55.0764 235.684 54.4047 235.684 53.6143V26.5849C235.684 25.8341 235.843 25.3007 236.159 24.9845C236.514 24.6289 237.068 24.451 237.818 24.451H246.828C247.579 24.451 248.112 24.6289 248.429 24.9845C248.784 25.3007 248.962 25.8341 248.962 26.5849V55.9261Z" fill="#F8F8F7"/>
<path d="M206.265 55.9259C206.265 57.7437 205.988 59.4034 205.435 60.905C204.921 62.3671 203.973 63.6316 202.59 64.6986C201.246 65.726 199.369 66.5361 196.959 67.1289C194.588 67.7216 191.565 68.018 187.89 68.018C184.215 68.018 181.172 67.7216 178.761 67.1289C176.351 66.5361 174.454 65.726 173.071 64.6986C171.727 63.6316 170.779 62.3671 170.226 60.905C169.712 59.4034 169.455 57.7437 169.455 55.9259V35.7131C169.455 33.8954 169.712 32.2554 170.226 30.7933C170.779 29.2917 171.727 28.0074 173.071 26.9404C174.454 25.8735 176.351 25.0436 178.761 24.4509C181.172 23.8581 184.215 23.5618 187.89 23.5618C191.565 23.5618 194.588 23.8581 196.959 24.4509C199.369 25.0436 201.246 25.8735 202.59 26.9404C203.973 28.0074 204.921 29.2917 205.435 30.7933C205.988 32.2554 206.265 33.8954 206.265 35.7131V55.9259ZM182.911 53.792C182.911 54.5823 183.207 55.2541 183.8 55.8073C184.392 56.3211 185.756 56.5779 187.89 56.5779C190.024 56.5779 191.387 56.3211 191.98 55.8073C192.572 55.2541 192.869 54.5823 192.869 53.792V37.847C192.869 37.0962 192.572 36.464 191.98 35.9502C191.387 35.397 190.024 35.1204 187.89 35.1204C185.756 35.1204 184.392 35.397 183.8 35.9502C183.207 36.464 182.911 37.0962 182.911 37.847V53.792Z" fill="#F8F8F7"/>
<path d="M140.927 35.1205V42.7077H145.373C146.4 42.7077 147.092 42.4509 147.448 41.9372C147.803 41.3839 147.981 40.7121 147.981 39.9218V37.9065C147.981 37.1161 147.803 36.4641 147.448 35.9504C147.092 35.3972 146.4 35.1205 145.373 35.1205H140.927ZM138.794 67.129H129.665C128.914 67.129 128.361 66.971 128.005 66.6548C127.689 66.2992 127.531 65.7459 127.531 64.9951V26.5849C127.531 25.8341 127.689 25.3007 128.005 24.9845C128.361 24.6289 128.914 24.451 129.665 24.451H149.404C153.83 24.451 156.872 25.3797 158.532 27.237C160.231 29.0547 161.081 31.4257 161.081 34.35V37.0766C161.081 38.7363 160.824 40.1589 160.31 41.3444C159.836 42.4904 158.987 43.3202 157.762 43.834C159.895 44.0711 161.614 44.9404 162.918 46.4421C164.262 47.9437 164.934 49.9393 164.934 52.4288V64.9951C164.934 65.7459 164.756 66.2992 164.4 66.6548C164.084 66.971 163.551 67.129 162.8 67.129H153.612C152.861 67.129 152.308 66.971 151.953 66.6548C151.636 66.2992 151.478 65.7459 151.478 64.9951V55.9261C151.478 55.0567 151.301 54.4244 150.945 54.0293C150.629 53.5946 150.056 53.3772 149.226 53.3772H140.927V64.9951C140.927 65.7459 140.75 66.2992 140.394 66.6548C140.078 66.971 139.544 67.129 138.794 67.129Z" fill="#F8F8F7"/>
<path d="M119.351 67.129H100.679C95.7397 67.129 92.0647 66.1411 89.6542 64.1653C87.2832 62.1894 86.0977 59.1467 86.0977 55.0369V36.5431C86.0977 32.4334 87.2832 29.3906 89.6542 27.4148C92.0647 25.439 95.7397 24.451 100.679 24.451H115.498C116.249 24.451 116.782 24.6289 117.098 24.9845C117.454 25.3007 117.632 25.8341 117.632 26.5849V33.7572C117.632 34.508 117.454 35.0613 117.098 35.4169C116.782 35.7331 116.249 35.8911 115.498 35.8911H103.169C101.944 35.8911 101.035 36.148 100.442 36.6617C99.8495 37.1359 99.5531 37.8669 99.5531 38.8549V53.0216C99.5531 54.0095 99.7704 54.7406 100.205 55.2148C100.679 55.689 101.371 55.9261 102.28 55.9261H108.029V46.6792C108.029 45.9283 108.187 45.3949 108.504 45.0787C108.859 44.7231 109.412 44.5453 110.163 44.5453H119.351C120.102 44.5453 120.635 44.7231 120.951 45.0787C121.307 45.3949 121.485 45.9283 121.485 46.6792V64.9951C121.485 65.7459 121.307 66.2992 120.951 66.6548C120.635 66.971 120.102 67.129 119.351 67.129Z" fill="#F8F8F7"/>
</svg>
